<?xml version="1.0" encoding="UTF-8"?><svg id="Layer_2" xmlns="http://www.w3.org/2000/svg" viewBox="0 0 189 189"><defs><style>.cls-1{fill:#fff;}</style></defs><g id="Layer_1-2"><rect class="cls-1" x="90" width="99" height="189"/><rect x="0" width="99" height="189"/><path d="M108,135v-45c30.86,0,54,20.31,54,45s-23.14,45-54,45v-45Z"/><path d="M108,54V9c30.86,0,54,20.31,54,45s-23.14,45-54,45V54Z"/><path d="M155.32,18c9.8,9.49,15.69,22.04,15.69,36s-5.89,26.51-15.69,36h24.69V18h-24.69Z"/><path d="M155.32,99c9.8,9.49,15.69,22.04,15.69,36s-5.89,26.51-15.69,36h24.69V99h-24.69Z"/><g><polygon points="4.5 184.5 4.54 4.5 184.49 4.5 184.49 22.5 22.54 22.5 22.5 85.5 184.49 85.5 184.49 103.5 22.5 103.5 22.49 166.5 184.49 166.5 184.49 184.5 4.5 184.5"/><path class="cls-1" d="M179.99,9v9H18.04l-.04,72H179.99v9H18v72s161.99,0,161.99,0v9H9l.04-171H179.99M188.99,0H.04V9S0,180,0,180v9s9,0,9,0H188.99v-27H26.99v-54H188.99v-27H27.01l.03-54H188.99V0h0Z"/></g></g></svg>